<svg width="143" height="19" viewBox="0 0 15 19" fill="none" xmlns="http://www.w3.org/2000/svg">
<path d="M-0.00805664 17.9999V1.19989H7.26394C8.76794 1.19989 10.0639 1.44789 11.1519 1.94389C12.2399 2.42389 13.0799 3.11989 13.6719 4.0319C14.2639 4.94389 14.5599 6.0319 14.5599 7.2959C14.5599 8.5439 14.2639 9.6239 13.6719 10.5359C13.0799 11.4319 12.2399 12.1199 11.1519 12.5999C10.0639 13.0799 8.76794 13.3199 7.26394 13.3199H2.15194L3.87994 11.6159V17.9999H-0.00805664ZM10.6719 17.9999L6.47194 11.9039H10.6239L14.8719 17.9999H10.6719ZM3.87994 12.0479L2.15194 10.2239H7.04794C8.24794 10.2239 9.14394 9.9679 9.73594 9.4559C10.3279 8.92789 10.6239 8.2079 10.6239 7.2959C10.6239 6.3679 10.3279 5.6479 9.73594 5.1359C9.14394 4.6239 8.24794 4.3679 7.04794 4.3679H2.15194L3.87994 2.51989V12.0479Z" fill="#10B981"/>
<path d="M24.2644 18.1919C22.7924 18.1919 21.4964 17.9039 20.3764 17.3279C19.2724 16.7519 18.4164 15.9679 17.8084 14.9759C17.2004 13.9679 16.8964 12.8239 16.8964 11.5439C16.8964 10.2479 17.1924 9.1039 17.7844 8.11189C18.3924 7.10389 19.2164 6.31989 20.2564 5.75989C21.2964 5.1839 22.4724 4.8959 23.7844 4.8959C25.0484 4.8959 26.1844 5.1679 27.1924 5.71189C28.2164 6.23989 29.0244 7.00789 29.6164 8.0159C30.2084 9.0079 30.5044 10.1999 30.5044 11.5919C30.5044 11.7359 30.4964 11.9039 30.4804 12.0959C30.4644 12.2719 30.4484 12.4399 30.4324 12.5999H19.9444V10.4159H28.4644L27.0244 11.0639C27.0244 10.3919 26.8884 9.8079 26.6164 9.3119C26.3444 8.8159 25.9684 8.4319 25.4884 8.15989C25.0084 7.87189 24.4484 7.72789 23.8084 7.72789C23.1684 7.72789 22.6004 7.87189 22.1044 8.15989C21.6244 8.4319 21.2484 8.82389 20.9764 9.33589C20.7044 9.83189 20.5684 10.4239 20.5684 11.1119V11.6879C20.5684 12.3919 20.7204 13.0159 21.0244 13.5599C21.3444 14.0879 21.7844 14.4959 22.3444 14.7839C22.9204 15.0559 23.5924 15.1919 24.3604 15.1919C25.0484 15.1919 25.6484 15.0879 26.1604 14.8799C26.6884 14.6719 27.1684 14.3599 27.6004 13.9439L29.5924 16.1039C29.0004 16.7759 28.2564 17.2959 27.3604 17.6639C26.4644 18.0159 25.4324 18.1919 24.2644 18.1919Z" fill="#10B981"/>
<path d="M37.821 18.1919C36.717 18.1919 35.653 18.0639 34.629 17.8079C33.621 17.5359 32.821 17.1999 32.229 16.7999L33.477 14.1119C34.069 14.4799 34.765 14.7839 35.565 15.0239C36.381 15.2479 37.181 15.3599 37.965 15.3599C38.829 15.3599 39.437 15.2559 39.789 15.0479C40.157 14.8399 40.341 14.5519 40.341 14.1839C40.341 13.8799 40.197 13.6559 39.909 13.5119C39.637 13.3519 39.269 13.2319 38.805 13.1519C38.341 13.0719 37.829 12.9919 37.269 12.9119C36.725 12.8319 36.173 12.7279 35.613 12.5999C35.053 12.4559 34.541 12.2479 34.077 11.9759C33.613 11.7039 33.237 11.3359 32.949 10.8719C32.677 10.4079 32.541 9.8079 32.541 9.0719C32.541 8.2559 32.773 7.5359 33.237 6.9119C33.717 6.28789 34.405 5.79989 35.301 5.4479C36.197 5.0799 37.269 4.8959 38.517 4.8959C39.397 4.8959 40.293 4.9919 41.205 5.18389C42.117 5.3759 42.877 5.6559 43.485 6.0239L42.237 8.68789C41.613 8.31989 40.981 8.0719 40.341 7.94389C39.717 7.79989 39.109 7.72789 38.517 7.72789C37.685 7.72789 37.077 7.83989 36.693 8.06389C36.309 8.2879 36.117 8.5759 36.117 8.92789C36.117 9.24789 36.253 9.4879 36.525 9.64789C36.813 9.80789 37.189 9.93589 37.653 10.0319C38.117 10.1279 38.621 10.2159 39.165 10.2959C39.725 10.3599 40.285 10.4639 40.845 10.6079C41.405 10.7519 41.909 10.9599 42.357 11.2319C42.821 11.4879 43.197 11.8479 43.485 12.3119C43.773 12.7599 43.917 13.3519 43.917 14.0879C43.917 14.8879 43.677 15.5999 43.197 16.2239C42.717 16.8319 42.021 17.3119 41.109 17.6639C40.213 18.0159 39.117 18.1919 37.821 18.1919Z" fill="#10B981"/>
<path d="M51.987 18.1919C50.467 18.1919 49.283 17.8079 48.435 17.0399C47.587 16.2559 47.163 15.0959 47.163 13.5599V2.2319H50.907V13.5119C50.907 14.0559 51.051 14.4799 51.339 14.7839C51.627 15.0719 52.019 15.2159 52.515 15.2159C53.107 15.2159 53.611 15.0559 54.027 14.7359L55.035 17.3759C54.651 17.6479 54.187 17.8559 53.643 17.9999C53.115 18.1279 52.563 18.1919 51.987 18.1919ZM45.171 8.2559V5.3759H54.123V8.2559H45.171Z" fill="#10B981"/>
<path d="M63.3623 18.1919C61.9863 18.1919 60.7623 17.9039 59.6903 17.3279C58.6343 16.7519 57.7943 15.9679 57.1703 14.9759C56.5623 13.9679 56.2583 12.8239 56.2583 11.5439C56.2583 10.2479 56.5623 9.1039 57.1703 8.11189C57.7943 7.10389 58.6343 6.31989 59.6903 5.75989C60.7623 5.1839 61.9863 4.8959 63.3623 4.8959C64.7223 4.8959 65.9383 5.1839 67.0103 5.75989C68.0823 6.31989 68.9223 7.0959 69.5303 8.0879C70.1383 9.0799 70.4423 10.2319 70.4423 11.5439C70.4423 12.8239 70.1383 13.9679 69.5303 14.9759C68.9223 15.9679 68.0823 16.7519 67.0103 17.3279C65.9383 17.9039 64.7223 18.1919 63.3623 18.1919ZM63.3623 15.1199C63.9863 15.1199 64.5462 14.9759 65.0423 14.6879C65.5383 14.3999 65.9303 13.9919 66.2183 13.4639C66.5063 12.9199 66.6503 12.2799 66.6503 11.5439C66.6503 10.7919 66.5063 10.1519 66.2183 9.6239C65.9303 9.0959 65.5383 8.68789 65.0423 8.3999C64.5462 8.1119 63.9863 7.9679 63.3623 7.9679C62.7383 7.9679 62.1783 8.1119 61.6823 8.3999C61.1863 8.68789 60.7863 9.0959 60.4823 9.6239C60.1943 10.1519 60.0503 10.7919 60.0503 11.5439C60.0503 12.2799 60.1943 12.9199 60.4823 13.4639C60.7863 13.9919 61.1863 14.3999 61.6823 14.6879C62.1783 14.9759 62.7383 15.1199 63.3623 15.1199Z" fill="#10B981"/>
<path d="M81.7768 18.1439C80.5128 18.1439 79.3368 17.9359 78.2488 17.5199C77.1768 17.0879 76.2408 16.4879 75.4408 15.7199C74.6568 14.9359 74.0408 14.0319 73.5928 13.0079C73.1608 11.9679 72.9448 10.8319 72.9448 9.5999C72.9448 8.3679 73.1608 7.23989 73.5928 6.21589C74.0408 5.17589 74.6568 4.27189 75.4408 3.50389C76.2408 2.71989 77.1768 2.11989 78.2488 1.7039C79.3208 1.27189 80.4968 1.05589 81.7768 1.05589C83.0408 1.05589 84.2088 1.27189 85.2808 1.7039C86.3528 2.11989 87.2808 2.71189 88.0648 3.4799C88.8648 4.24789 89.4808 5.1519 89.9128 6.1919C90.3608 7.2319 90.5848 8.3679 90.5848 9.5999C90.5848 10.8319 90.3608 11.9679 89.9128 13.0079C89.4808 14.0479 88.8648 14.9519 88.0648 15.7199C87.2808 16.4879 86.3528 17.0879 85.2808 17.5199C84.2088 17.9359 83.0408 18.1439 81.7768 18.1439ZM81.7768 16.5599C82.7848 16.5599 83.7128 16.3919 84.5608 16.0559C85.4248 15.7039 86.1688 15.2159 86.7928 14.5919C87.4328 13.9519 87.9288 13.2159 88.2808 12.3839C88.6328 11.5359 88.8088 10.6079 88.8088 9.5999C88.8088 8.5919 88.6328 7.6719 88.2808 6.83989C87.9288 5.9919 87.4328 5.2559 86.7928 4.63189C86.1688 3.9919 85.4248 3.5039 84.5608 3.16789C83.7128 2.81589 82.7848 2.63989 81.7768 2.63989C80.7688 2.63989 79.8328 2.81589 78.9688 3.16789C78.1048 3.5039 77.3528 3.9919 76.7128 4.63189C76.0888 5.2559 75.5928 5.9919 75.2248 6.83989C74.8728 7.6719 74.6968 8.5919 74.6968 9.5999C74.6968 10.5919 74.8728 11.5119 75.2248 12.3599C75.5928 13.2079 76.0888 13.9519 76.7128 14.5919C77.3528 15.2159 78.1048 15.7039 78.9688 16.0559C79.8328 16.3919 80.7688 16.5599 81.7768 16.5599Z" fill="#10B981"/>
<path d="M94.6856 17.9999V5.39989H96.3176V8.83189L96.1496 8.2319C96.5016 7.2719 97.0936 6.5439 97.9256 6.04789C98.7576 5.53589 99.7896 5.27989 101.022 5.27989V6.93589C100.958 6.93589 100.894 6.93589 100.83 6.93589C100.766 6.9199 100.702 6.9119 100.638 6.9119C99.3096 6.9119 98.2696 7.3199 97.5176 8.1359C96.7656 8.93589 96.3896 10.0799 96.3896 11.5679V17.9999H94.6856Z" fill="#10B981"/>
<path d="M109.51 18.1199C108.31 18.1199 107.23 17.8479 106.27 17.3039C105.326 16.7599 104.582 16.0079 104.038 15.0479C103.494 14.0719 103.222 12.9519 103.222 11.6879C103.222 10.4079 103.494 9.2879 104.038 8.3279C104.582 7.3679 105.326 6.62389 106.27 6.09589C107.23 5.55189 108.31 5.27989 109.51 5.27989C110.614 5.27989 111.598 5.52789 112.462 6.0239C113.342 6.5199 114.038 7.2479 114.55 8.2079C115.078 9.1519 115.342 10.3119 115.342 11.6879C115.342 13.0479 115.086 14.2079 114.574 15.1679C114.062 16.1279 113.366 16.8639 112.486 17.3759C111.622 17.8719 110.63 18.1199 109.51 18.1199ZM109.63 16.6079C110.526 16.6079 111.326 16.4079 112.03 16.0079C112.75 15.5919 113.31 15.0159 113.71 14.2799C114.126 13.5279 114.334 12.6639 114.334 11.6879C114.334 10.6959 114.126 9.83189 113.71 9.09589C113.31 8.35989 112.75 7.79189 112.03 7.39189C111.326 6.97589 110.526 6.76789 109.63 6.76789C108.75 6.76789 107.958 6.97589 107.254 7.39189C106.55 7.79189 105.99 8.35989 105.574 9.09589C105.158 9.83189 104.95 10.6959 104.95 11.6879C104.95 12.6639 105.158 13.5279 105.574 14.2799C105.99 15.0159 106.55 15.5919 107.254 16.0079C107.958 16.4079 108.75 16.6079 109.63 16.6079ZM114.382 17.9999V14.2079L114.55 11.6639L114.31 9.1199V0.191895H116.014V17.9999H114.382Z" fill="#10B981"/>
<path d="M126.591 18.1199C125.279 18.1199 124.127 17.8479 123.135 17.3039C122.143 16.7439 121.367 15.9839 120.807 15.0239C120.247 14.0479 119.967 12.9359 119.967 11.6879C119.967 10.4399 120.231 9.33589 120.759 8.37589C121.303 7.41589 122.039 6.6639 122.967 6.11989C123.911 5.5599 124.967 5.27989 126.135 5.27989C127.319 5.27989 128.367 5.55189 129.279 6.09589C130.207 6.62389 130.935 7.3759 131.463 8.3519C131.991 9.3119 132.255 10.4239 132.255 11.6879C132.255 11.7679 132.247 11.8559 132.231 11.9519C132.231 12.0319 132.231 12.1199 132.231 12.2159H121.263V10.9439H131.319L130.647 11.4479C130.647 10.5359 130.447 9.7279 130.047 9.0239C129.663 8.30389 129.135 7.7439 128.463 7.34389C127.791 6.9439 127.015 6.7439 126.135 6.7439C125.271 6.7439 124.495 6.9439 123.807 7.34389C123.119 7.7439 122.583 8.30389 122.199 9.0239C121.815 9.74389 121.623 10.5679 121.623 11.4959V11.7599C121.623 12.7199 121.831 13.5679 122.247 14.3039C122.679 15.0239 123.271 15.5919 124.023 16.0079C124.791 16.4079 125.663 16.6079 126.639 16.6079C127.407 16.6079 128.119 16.4719 128.775 16.1999C129.447 15.9279 130.023 15.5119 130.503 14.9519L131.463 16.0559C130.903 16.7279 130.199 17.2399 129.351 17.5919C128.519 17.9439 127.599 18.1199 126.591 18.1199Z" fill="#10B981"/>
<path d="M136.204 17.9999V5.39989H137.836V8.83189L137.668 8.2319C138.02 7.2719 138.612 6.5439 139.444 6.04789C140.276 5.53589 141.308 5.27989 142.54 5.27989V6.93589C142.476 6.93589 142.412 6.93589 142.348 6.93589C142.284 6.9199 142.22 6.9119 142.156 6.9119C140.828 6.9119 139.788 7.3199 139.036 8.1359C138.284 8.93589 137.908 10.0799 137.908 11.5679V17.9999H136.204Z" fill="#10B981"/>
</svg>
